<svg xmlns="http://www.w3.org/2000/svg" width="42" height="43" viewBox="0 0 42 43" version="1.1"><g stroke="none" stroke-width="1" fill="none" fill-rule="evenodd"><g transform="translate(-718.000000, -60.000000)" fill="#FFFFFF"><g transform="translate(739.500000, 81.500000) rotate(-45.000000) translate(-739.500000, -81.500000) translate(712.000000, 54.000000)"><path d="M30 30.1L30 52.5C30 53.6 29.1 54.5 28 54.5L25.5 54.5C24.4 54.5 23.5 53.6 23.5 52.5L23.5 30.1 2 30.1C0.9 30.1 0 29.2 0 28.1L0 25.6C0 24.5 0.9 23.6 2 23.6L23.5 23.6 23.5 2.1C23.5 1 24.4 0.1 25.5 0.1L28 0.1C29.1 0.1 30 1 30 2.1L30 23.6 52.4 23.6C53.5 23.6 54.4 24.5 54.4 25.6L54.4 28.1C54.4 29.2 53.5 30.1 52.4 30.1L30 30.1Z"/></g></g></g></svg>